<mxfile host="app.diagrams.net" agent="Mozilla/5.0 (Windows NT 10.0; Win64; x64) AppleWebKit/537.36 (KHTML, like Gecko) Chrome/126.0.0.0 Safari/537.36" version="24.7.17">
  <diagram name="Page-1" id="Jr6k2m0oqIeilDGeIhxD">
    <mxGraphModel dx="734" dy="455" grid="1" gridSize="10" guides="1" tooltips="1" connect="1" arrows="1" fold="1" page="1" pageScale="1" pageWidth="850" pageHeight="1100" math="0" shadow="0">
      <root>
        <mxCell id="0" />
        <mxCell id="1" parent="0" />
        <mxCell id="ycxTqgAwPsIFHGDEBRWZ-2" value="&lt;b&gt;obat&lt;/b&gt;" style="whiteSpace=wrap;html=1;align=center;" vertex="1" parent="1">
          <mxGeometry x="160" y="200" width="100" height="40" as="geometry" />
        </mxCell>
        <mxCell id="ycxTqgAwPsIFHGDEBRWZ-3" value="harga" style="ellipse;whiteSpace=wrap;html=1;align=center;" vertex="1" parent="1">
          <mxGeometry x="150" y="100" width="100" height="50" as="geometry" />
        </mxCell>
        <mxCell id="ycxTqgAwPsIFHGDEBRWZ-4" value="merk" style="ellipse;whiteSpace=wrap;html=1;align=center;" vertex="1" parent="1">
          <mxGeometry x="30" y="150" width="100" height="40" as="geometry" />
        </mxCell>
        <mxCell id="ycxTqgAwPsIFHGDEBRWZ-5" value="fungsi" style="ellipse;whiteSpace=wrap;html=1;align=center;" vertex="1" parent="1">
          <mxGeometry x="30" y="250" width="100" height="40" as="geometry" />
        </mxCell>
        <mxCell id="ycxTqgAwPsIFHGDEBRWZ-6" value="dosis" style="ellipse;whiteSpace=wrap;html=1;align=center;" vertex="1" parent="1">
          <mxGeometry x="130" y="290" width="100" height="40" as="geometry" />
        </mxCell>
        <mxCell id="ycxTqgAwPsIFHGDEBRWZ-11" value="" style="endArrow=none;html=1;rounded=0;exitX=0.568;exitY=1.02;exitDx=0;exitDy=0;exitPerimeter=0;entryX=0.472;entryY=-0.015;entryDx=0;entryDy=0;entryPerimeter=0;" edge="1" parent="1" source="ycxTqgAwPsIFHGDEBRWZ-3" target="ycxTqgAwPsIFHGDEBRWZ-2">
          <mxGeometry relative="1" as="geometry">
            <mxPoint x="350" y="340" as="sourcePoint" />
            <mxPoint x="510" y="340" as="targetPoint" />
          </mxGeometry>
        </mxCell>
        <mxCell id="ycxTqgAwPsIFHGDEBRWZ-12" value="" style="endArrow=none;html=1;rounded=0;exitX=0.934;exitY=0.722;exitDx=0;exitDy=0;exitPerimeter=0;entryX=0;entryY=0.25;entryDx=0;entryDy=0;" edge="1" parent="1" source="ycxTqgAwPsIFHGDEBRWZ-4" target="ycxTqgAwPsIFHGDEBRWZ-2">
          <mxGeometry relative="1" as="geometry">
            <mxPoint x="217" y="161" as="sourcePoint" />
            <mxPoint x="217" y="209" as="targetPoint" />
          </mxGeometry>
        </mxCell>
        <mxCell id="ycxTqgAwPsIFHGDEBRWZ-13" value="" style="endArrow=none;html=1;rounded=0;exitX=1;exitY=0.5;exitDx=0;exitDy=0;entryX=0;entryY=0.75;entryDx=0;entryDy=0;" edge="1" parent="1" source="ycxTqgAwPsIFHGDEBRWZ-5" target="ycxTqgAwPsIFHGDEBRWZ-2">
          <mxGeometry relative="1" as="geometry">
            <mxPoint x="130" y="240" as="sourcePoint" />
            <mxPoint x="167" y="271" as="targetPoint" />
          </mxGeometry>
        </mxCell>
        <mxCell id="ycxTqgAwPsIFHGDEBRWZ-14" value="" style="endArrow=none;html=1;rounded=0;exitX=0.6;exitY=0;exitDx=0;exitDy=0;entryX=0.5;entryY=1;entryDx=0;entryDy=0;exitPerimeter=0;" edge="1" parent="1" source="ycxTqgAwPsIFHGDEBRWZ-6" target="ycxTqgAwPsIFHGDEBRWZ-2">
          <mxGeometry relative="1" as="geometry">
            <mxPoint x="140" y="280" as="sourcePoint" />
            <mxPoint x="170" y="240" as="targetPoint" />
          </mxGeometry>
        </mxCell>
        <mxCell id="ycxTqgAwPsIFHGDEBRWZ-15" value="" style="shape=rhombus;perimeter=rhombusPerimeter;whiteSpace=wrap;html=1;align=center;" vertex="1" parent="1">
          <mxGeometry x="410" y="200" width="50" height="40" as="geometry" />
        </mxCell>
        <mxCell id="ycxTqgAwPsIFHGDEBRWZ-16" value="" style="endArrow=none;html=1;rounded=0;exitX=1;exitY=0.5;exitDx=0;exitDy=0;entryX=0;entryY=0.5;entryDx=0;entryDy=0;" edge="1" parent="1" source="ycxTqgAwPsIFHGDEBRWZ-2" target="ycxTqgAwPsIFHGDEBRWZ-15">
          <mxGeometry relative="1" as="geometry">
            <mxPoint x="310" y="190" as="sourcePoint" />
            <mxPoint x="470" y="190" as="targetPoint" />
          </mxGeometry>
        </mxCell>
        <mxCell id="ycxTqgAwPsIFHGDEBRWZ-17" value="&lt;b&gt;jenis_obat&lt;/b&gt;" style="whiteSpace=wrap;html=1;align=center;" vertex="1" parent="1">
          <mxGeometry x="560" y="200" width="100" height="40" as="geometry" />
        </mxCell>
        <mxCell id="ycxTqgAwPsIFHGDEBRWZ-18" value="" style="endArrow=none;html=1;rounded=0;exitX=1;exitY=0.5;exitDx=0;exitDy=0;entryX=0;entryY=0.5;entryDx=0;entryDy=0;" edge="1" parent="1" source="ycxTqgAwPsIFHGDEBRWZ-15" target="ycxTqgAwPsIFHGDEBRWZ-17">
          <mxGeometry relative="1" as="geometry">
            <mxPoint x="270" y="230" as="sourcePoint" />
            <mxPoint x="420" y="230" as="targetPoint" />
          </mxGeometry>
        </mxCell>
        <mxCell id="ycxTqgAwPsIFHGDEBRWZ-19" value="dosis" style="ellipse;whiteSpace=wrap;html=1;align=center;" vertex="1" parent="1">
          <mxGeometry x="560" y="290" width="100" height="40" as="geometry" />
        </mxCell>
        <mxCell id="ycxTqgAwPsIFHGDEBRWZ-20" value="dosis" style="ellipse;whiteSpace=wrap;html=1;align=center;" vertex="1" parent="1">
          <mxGeometry x="720" y="200" width="100" height="40" as="geometry" />
        </mxCell>
        <mxCell id="ycxTqgAwPsIFHGDEBRWZ-21" value="dosis" style="ellipse;whiteSpace=wrap;html=1;align=center;" vertex="1" parent="1">
          <mxGeometry x="560" y="100" width="100" height="40" as="geometry" />
        </mxCell>
        <mxCell id="ycxTqgAwPsIFHGDEBRWZ-22" value="" style="endArrow=none;html=1;rounded=0;exitX=0.5;exitY=0;exitDx=0;exitDy=0;entryX=0.5;entryY=1;entryDx=0;entryDy=0;" edge="1" parent="1" source="ycxTqgAwPsIFHGDEBRWZ-19" target="ycxTqgAwPsIFHGDEBRWZ-17">
          <mxGeometry relative="1" as="geometry">
            <mxPoint x="200" y="300" as="sourcePoint" />
            <mxPoint x="220" y="250" as="targetPoint" />
          </mxGeometry>
        </mxCell>
        <mxCell id="ycxTqgAwPsIFHGDEBRWZ-24" value="" style="endArrow=none;html=1;rounded=0;exitX=1;exitY=0.5;exitDx=0;exitDy=0;entryX=0;entryY=0.5;entryDx=0;entryDy=0;" edge="1" parent="1" source="ycxTqgAwPsIFHGDEBRWZ-17" target="ycxTqgAwPsIFHGDEBRWZ-20">
          <mxGeometry relative="1" as="geometry">
            <mxPoint x="620" y="300" as="sourcePoint" />
            <mxPoint x="620" y="250" as="targetPoint" />
          </mxGeometry>
        </mxCell>
        <mxCell id="ycxTqgAwPsIFHGDEBRWZ-25" value="" style="endArrow=none;html=1;rounded=0;exitX=0.5;exitY=1;exitDx=0;exitDy=0;entryX=0.5;entryY=0;entryDx=0;entryDy=0;" edge="1" parent="1" source="ycxTqgAwPsIFHGDEBRWZ-21" target="ycxTqgAwPsIFHGDEBRWZ-17">
          <mxGeometry relative="1" as="geometry">
            <mxPoint x="670" y="230" as="sourcePoint" />
            <mxPoint x="730" y="230" as="targetPoint" />
          </mxGeometry>
        </mxCell>
        <mxCell id="ycxTqgAwPsIFHGDEBRWZ-26" value="1" style="text;html=1;align=center;verticalAlign=middle;resizable=0;points=[];autosize=1;strokeColor=none;fillColor=none;" vertex="1" parent="1">
          <mxGeometry x="255" y="198" width="30" height="30" as="geometry" />
        </mxCell>
        <mxCell id="ycxTqgAwPsIFHGDEBRWZ-27" value="n" style="text;html=1;align=center;verticalAlign=middle;resizable=0;points=[];autosize=1;strokeColor=none;fillColor=none;" vertex="1" parent="1">
          <mxGeometry x="255" y="217" width="30" height="30" as="geometry" />
        </mxCell>
        <mxCell id="ycxTqgAwPsIFHGDEBRWZ-29" value="1" style="text;html=1;align=center;verticalAlign=middle;resizable=0;points=[];autosize=1;strokeColor=none;fillColor=none;" vertex="1" parent="1">
          <mxGeometry x="535" y="198" width="30" height="30" as="geometry" />
        </mxCell>
        <mxCell id="ycxTqgAwPsIFHGDEBRWZ-31" value="1" style="text;html=1;align=center;verticalAlign=middle;resizable=0;points=[];autosize=1;strokeColor=none;fillColor=none;" vertex="1" parent="1">
          <mxGeometry x="536" y="218" width="30" height="30" as="geometry" />
        </mxCell>
        <mxCell id="ycxTqgAwPsIFHGDEBRWZ-32" value="Entity" style="swimlane;childLayout=stackLayout;horizontal=1;startSize=50;horizontalStack=0;rounded=1;fontSize=14;fontStyle=0;strokeWidth=2;resizeParent=0;resizeLast=1;shadow=0;dashed=0;align=center;arcSize=4;whiteSpace=wrap;html=1;" vertex="1" parent="1">
          <mxGeometry x="100" y="390" width="160" height="120" as="geometry" />
        </mxCell>
        <mxCell id="ycxTqgAwPsIFHGDEBRWZ-33" value="obat&lt;div&gt;jenis_obat&lt;/div&gt;" style="align=left;strokeColor=none;fillColor=none;spacingLeft=4;fontSize=12;verticalAlign=top;resizable=0;rotatable=0;part=1;html=1;" vertex="1" parent="ycxTqgAwPsIFHGDEBRWZ-32">
          <mxGeometry y="50" width="160" height="70" as="geometry" />
        </mxCell>
        <mxCell id="ycxTqgAwPsIFHGDEBRWZ-38" value="atribut" style="swimlane;childLayout=stackLayout;horizontal=1;startSize=50;horizontalStack=0;rounded=1;fontSize=14;fontStyle=0;strokeWidth=2;resizeParent=0;resizeLast=1;shadow=0;dashed=0;align=center;arcSize=4;whiteSpace=wrap;html=1;" vertex="1" parent="1">
          <mxGeometry x="300" y="390" width="190" height="120" as="geometry" />
        </mxCell>
        <mxCell id="ycxTqgAwPsIFHGDEBRWZ-39" value="{&lt;b&gt;id_obat&lt;/b&gt;, harga, fungsi, dosis&lt;div&gt;{kode_jenis_obat&lt;/div&gt;&lt;div&gt;&amp;nbsp; keterangan&lt;/div&gt;&lt;div&gt;nama jenis obat}&lt;/div&gt;" style="align=left;strokeColor=none;fillColor=none;spacingLeft=4;fontSize=12;verticalAlign=top;resizable=0;rotatable=0;part=1;html=1;" vertex="1" parent="ycxTqgAwPsIFHGDEBRWZ-38">
          <mxGeometry y="50" width="190" height="70" as="geometry" />
        </mxCell>
      </root>
    </mxGraphModel>
  </diagram>
</mxfile>
